<svg width="128" height="128" viewBox="0 0 128 128" fill="none" xmlns="http://www.w3.org/2000/svg">
  <path d="M18 32C18 26.4772 22.4772 22 28 22H54L64 32H100C105.523 32 110 36.4772 110 42V92C110 97.5228 105.523 102 100 102H28C22.4772 102 18 97.5228 18 92V32Z" fill="#7A7A7A"/>
  <path d="M38 56C38 53.7909 39.7909 52 42 52H86C88.2091 52 90 53.7909 90 56V58C90 60.2091 88.2091 62 86 62H42C39.7909 62 38 60.2091 38 58V56Z" fill="#FFFFFF"/>
  <path d="M38 74C38 71.7909 39.7909 70 42 70H72C74.2091 70 76 71.7909 76 74V76C76 78.2091 74.2091 80 72 80H42C39.7909 80 38 78.2091 38 76V74Z" fill="#FFFFFF"/>
</svg>
